<?xml version="1.0" encoding="UTF-8" standalone="no"?>
<!DOCTYPE svg PUBLIC "-//W3C//DTD SVG 1.1//EN" "http://www.w3.org/Graphics/SVG/1.1/DTD/svg11.dtd">
<svg width="100%" height="100%" viewBox="0 0 536 115" version="1.1" xmlns="http://www.w3.org/2000/svg" xmlns:xlink="http://www.w3.org/1999/xlink" xml:space="preserve" xmlns:serif="http://www.serif.com/" style="fill-rule:evenodd;clip-rule:evenodd;stroke-linejoin:round;stroke-miterlimit:2;">
    <g transform="matrix(1,0,0,1,-869.808,-232.279)">
        <g id="Artboard1" transform="matrix(0.731778,0,0,0.18434,-58.8187,232.279)">
            <rect x="1269" y="0" width="732.09" height="620.561" style="fill:none;"/>
            <clipPath id="_clip1">
                <rect x="1269" y="0" width="732.09" height="620.561"/>
            </clipPath>
            <g clip-path="url(#_clip1)">
                <g transform="matrix(0.912722,0,0,3.62325,1235.13,-991.84)">
                    <path d="M300.965,305.386C298.593,307.758 295.699,308.944 292.283,308.944C288.867,308.944 285.973,307.746 283.601,305.35C281.228,302.954 280.042,300.072 280.042,296.704C280.042,293.335 281.228,290.453 283.601,288.057C285.973,285.661 288.867,284.463 292.283,284.463C295.699,284.463 298.593,285.661 300.965,288.057C303.337,290.453 304.523,293.335 304.523,296.704C304.523,300.072 303.337,302.966 300.965,305.386ZM263.745,323.248L301.961,323.248L301.961,438.322L283.458,438.322L283.458,339.972L263.745,339.972L263.745,323.248Z" style="fill-rule:nonzero;"/>
                    <path d="M356.69,321.184C364.566,321.184 371.682,322.94 378.039,326.451C384.397,329.961 389.378,334.812 392.984,341.004C396.59,347.195 398.393,354.134 398.393,361.82C398.393,369.505 396.59,376.456 392.984,382.671C389.378,388.886 384.397,393.749 378.039,397.26C371.682,400.771 364.566,402.526 356.69,402.526C344.687,402.526 334.724,398.659 326.801,390.926C318.878,383.193 314.916,373.491 314.916,361.82C314.916,350.149 318.878,340.458 326.801,332.749C334.724,325.039 344.687,321.184 356.69,321.184ZM373.129,345.38C368.669,340.921 363.19,338.691 356.69,338.691C350.19,338.691 344.71,340.921 340.251,345.38C335.791,349.84 333.561,355.367 333.561,361.962C333.561,368.414 335.791,373.87 340.251,378.33C344.71,382.79 350.19,385.019 356.69,385.019C363.19,385.019 368.681,382.79 373.165,378.33C377.648,373.87 379.89,368.414 379.89,361.962C379.89,355.367 377.636,349.84 373.129,345.38Z" style="fill-rule:nonzero;"/>
                    <path d="M456.964,321.184C464.081,321.184 470.533,322.999 476.321,326.629C482.109,330.258 486.616,335.168 489.843,341.36C493.069,347.551 494.682,354.371 494.682,361.82C494.682,367.371 493.721,372.649 491.8,377.654C489.878,382.659 487.269,386.988 483.971,390.641C480.674,394.295 476.677,397.189 471.98,399.324C467.283,401.459 462.278,402.526 456.964,402.526C451.034,402.526 445.625,401.257 440.739,398.719C435.852,396.18 431.772,392.539 428.498,387.795L428.498,400.462L411.205,400.462L411.205,283.894L429.708,283.894L429.708,334.136C436.493,325.502 445.578,321.184 456.964,321.184ZM435.757,378.33C440.264,382.79 445.768,385.019 452.267,385.019C458.767,385.019 464.259,382.778 468.742,378.294C473.226,373.811 475.467,368.319 475.467,361.82C475.467,355.272 473.226,349.781 468.742,345.345C464.259,340.909 458.767,338.691 452.267,338.691C445.768,338.691 440.276,340.921 435.793,345.38C431.309,349.84 429.068,355.367 429.068,361.962C429.068,368.414 431.297,373.87 435.757,378.33Z" style="fill-rule:nonzero;"/>
                    <path d="M571.005,334.136L571.005,283.894L589.508,283.894L589.508,400.462L572.144,400.462L572.144,387.937C568.87,392.634 564.814,396.24 559.974,398.754C555.135,401.269 549.774,402.526 543.891,402.526C536.775,402.526 530.31,400.711 524.499,397.082C518.687,393.453 514.156,388.53 510.906,382.315C507.656,376.1 506.031,369.268 506.031,361.82C506.031,354.371 507.656,347.551 510.906,341.36C514.156,335.168 518.675,330.258 524.463,326.629C530.251,322.999 536.727,321.184 543.891,321.184C549.394,321.184 554.471,322.299 559.12,324.529C563.77,326.759 567.731,329.961 571.005,334.136ZM548.446,385.019C554.945,385.019 560.425,382.79 564.885,378.33C569.344,373.87 571.574,368.414 571.574,361.962C571.574,355.367 569.344,349.84 564.885,345.38C560.425,340.921 554.945,338.691 548.446,338.691C541.993,338.691 536.537,340.921 532.078,345.38C527.618,349.84 525.388,355.32 525.388,361.82C525.388,368.272 527.63,373.752 532.113,378.259C536.597,382.766 542.041,385.019 548.446,385.019Z" style="fill-rule:nonzero;"/>
                    <path d="M643.24,321.184C650.974,321.184 657.877,322.928 663.949,326.415C670.022,329.902 674.648,334.765 677.827,341.004C681.005,347.243 682.31,354.181 681.741,361.82C681.598,364.239 681.314,366.872 680.887,369.719L621.108,369.719C622.863,374.843 626.113,378.959 630.858,382.066C635.602,385.174 641.153,386.727 647.51,386.727C653.773,386.727 659.632,385.707 665.088,383.667L665.088,399.751C659.869,401.601 653.654,402.526 646.443,402.526C638.045,402.526 630.49,400.783 623.777,397.295C617.063,393.808 611.809,388.957 608.014,382.742C604.218,376.527 602.32,369.553 602.32,361.82C602.32,354.134 604.1,347.183 607.658,340.968C611.216,334.753 616.115,329.902 622.353,326.415C628.592,322.928 635.555,321.184 643.24,321.184ZM620.539,354.988L663.949,354.988C663.095,349.579 660.783,345.214 657.011,341.893C653.239,338.572 648.507,336.912 642.813,336.912C637.31,336.912 632.554,338.572 628.545,341.893C624.536,345.214 621.867,349.579 620.539,354.988Z" style="fill-rule:nonzero;"/>
                    <path d="M734.295,402.526C722.291,402.526 712.328,398.659 704.405,390.926C696.482,383.193 692.521,373.491 692.521,361.82C692.521,350.149 696.482,340.458 704.405,332.749C712.328,325.039 722.291,321.184 734.295,321.184C738.09,321.184 741.838,321.659 745.539,322.608L745.539,340.541C742.882,339.308 739.395,338.691 735.077,338.691C728.293,338.691 722.612,340.921 718.033,345.38C713.455,349.84 711.166,355.367 711.166,361.962C711.166,368.462 713.467,373.93 718.069,378.366C722.671,382.801 728.34,385.019 735.077,385.019C739.158,385.019 742.645,384.426 745.539,383.24L745.539,401.032C741.648,402.028 737.9,402.526 734.295,402.526Z" style="fill-rule:nonzero;"/>
                    <path d="M795.995,358.902L839.405,400.605L814,400.605L780.979,368.509L780.979,400.462L762.476,400.462L762.476,283.894L780.979,283.894L780.979,348.868L811.865,323.248L838.551,323.248L795.995,358.902Z" style="fill-rule:nonzero;"/>
                </g>
                <g transform="matrix(1.36653,0,0,5.42476,917.406,-2387.31)">
                    <path d="M378.804,514.598C379.788,514.106 380.41,513.1 380.41,512C380.41,510.9 379.788,509.894 378.804,509.402C365.121,502.561 328.643,484.322 321.299,480.65C320.481,480.241 319.519,480.241 318.701,480.65C311.357,484.322 274.879,502.561 261.196,509.402C260.212,509.894 259.59,510.9 259.59,512C259.59,513.1 260.212,514.106 261.196,514.598C274.879,521.439 311.357,539.678 318.701,543.35C319.519,543.759 320.481,543.759 321.299,543.35C328.643,539.678 365.121,521.439 378.804,514.598Z" style="fill:rgb(87,235,218);"/>
                    <g transform="matrix(1,0,0,1,0,-18)">
                        <path d="M378.804,514.598C379.788,514.106 380.41,513.1 380.41,512C380.41,510.9 379.788,509.894 378.804,509.402C365.121,502.561 328.643,484.322 321.299,480.65C320.481,480.241 319.519,480.241 318.701,480.65C311.357,484.322 274.879,502.561 261.196,509.402C260.212,509.894 259.59,510.9 259.59,512C259.59,513.1 260.212,514.106 261.196,514.598C274.879,521.439 311.357,539.678 318.701,543.35C319.519,543.759 320.481,543.759 321.299,543.35C328.643,539.678 365.121,521.439 378.804,514.598Z" style="fill:rgb(71,170,162);"/>
                    </g>
                    <g transform="matrix(1,0,0,1,0,-37)">
                        <path d="M378.804,514.598C379.788,514.106 380.41,513.1 380.41,512C380.41,510.9 379.788,509.894 378.804,509.402C365.121,502.561 328.643,484.322 321.299,480.65C320.481,480.241 319.519,480.241 318.701,480.65C311.357,484.322 274.879,502.561 261.196,509.402C260.212,509.894 259.59,510.9 259.59,512C259.59,513.1 260.212,514.106 261.196,514.598C274.879,521.439 311.357,539.678 318.701,543.35C319.519,543.759 320.481,543.759 321.299,543.35C328.643,539.678 365.121,521.439 378.804,514.598Z" style="fill:rgb(87,235,218);"/>
                    </g>
                </g>
            </g>
        </g>
    </g>
</svg>
